<svg width="400" height="400" xmlns="http://www.w3.org/2000/svg">
 <!-- Created with Method Draw - http://github.com/duopixel/Method-Draw/ -->

 <g>
  <title>background</title>
  <rect fill="purple" id="canvas_background" height="402" width="402" y="-1" x="-1"/>
  <g display="none" id="canvasGrid">
   <rect fill="url(#gridpattern)" stroke-width="0" y="0" x="0" height="100%" width="100%" id="svg_2"/>
  </g>
 </g>
 <g>
  <title>Layer 1</title>
  <g id="svg_29">
   <rect fill="#B9FFCE" stroke="#000" stroke-width="0" stroke-opacity="null" x="34.38675" y="22.2691" width="261.34426" height="265.54593" id="svg_26"/>
   <rect fill="#B9FFCE" stroke-width="0" stroke-opacity="null" x="127.66396" y="273.52933" width="168.90738" height="107.56291" id="svg_27" stroke="#000"/>
  </g>
  <path fill="#306856" stroke-width="0" stroke-opacity="null" d="m253.63763,251.34558l30.85272,-16.31787c-0.60651,-6.04595 -1.77867,-11.9109 -3.24504,-17.67642l-34.27296,-4.74596c-2.96644,-7.14602 -6.88374,-13.77375 -11.48843,-19.8577l13.06439,-32.13072c-4.29581,-4.1895 -8.93512,-8.00912 -13.81806,-11.52373l-29.10219,18.26998c-6.8245,-3.58885 -14.17723,-6.31463 -21.89585,-8.06526l-10.51708,-32.58197c-2.98274,-0.22524 -5.96463,-0.4632 -9.00645,-0.4632s-6.01528,0.23247 -9.00699,0.4632l-10.41289,32.29336c-7.92552,1.69453 -15.44061,4.45197 -22.44053,8.08512l-28.64897,-18.00123c-4.87676,3.51461 -9.51587,7.33424 -13.81134,11.52373l12.70487,31.24321c-4.95174,6.34632 -9.09747,13.34858 -12.21128,20.89535l-33.191,4.59034c-1.46019,5.75743 -2.63848,11.61616 -3.23875,17.6757l29.78974,15.76127c0.3375,8.2968 1.71306,16.33775 4.14887,23.90984l-22.47177,24.84694c2.61406,5.42187 5.5244,10.67993 8.89118,15.61299l33.08462,-7.1026c5.42447,5.90209 11.60474,11.07329 18.42342,15.34968l-1.25403,33.85049c5.4336,2.45062 11.07919,4.5016 16.89715,6.14098l20.93074,-26.90438c3.71376,0.47412 7.47444,0.79345 11.3102,0.79345c4.15533,0 8.21902,-0.3754 12.21728,-0.92472l21.03974,27.05364c5.8271,-1.63749 11.46409,-3.68835 16.89713,-6.13911l-1.27823,-34.4584c6.49909,-4.20752 12.3923,-9.24123 17.58782,-14.92445l33.94504,7.28364c3.3668,-4.93231 6.27753,-10.18477 8.89065,-15.61117l-23.19961,-25.66047c2.22859,-7.17226 3.47349,-14.74358 3.83592,-22.55355l-0.00001,0l-0.00002,0zm-51.27951,39.19695l-14.62781,9.52268l-8.99708,-13.82337c-4.68041,1.80029 -9.71942,2.89497 -15.03134,2.89497c-23.19951,0 -42.00055,-18.80843 -42.00055,-42.00434c0,-23.19685 18.80104,-41.998 42.00055,-41.998c23.19345,0 42.00136,18.80115 42.00136,41.998c0,11.59168 -4.69578,22.07044 -12.28618,29.67335l8.94105,13.7367l0,0.00001z" id="svg_8" opacity="0.5" stroke="null"/>
  <g id="svg_18">
   <line fill="none" stroke="#000" stroke-width="10" stroke-opacity="null" fill-opacity="null" x1="62.40553" y1="74.20799" x2="261.91117" y2="74.20799" id="svg_11" stroke-linejoin="null" stroke-linecap="null"/>
   <line fill="none" stroke="#000" stroke-width="10" stroke-opacity="null" fill-opacity="null" x1="62.40553" y1="94.20799" x2="261.91117" y2="94.20799" id="svg_12" stroke-linejoin="null" stroke-linecap="null"/>
   <line fill="none" stroke="#000" stroke-width="10" stroke-opacity="null" fill-opacity="null" x1="62.40553" y1="114.20799" x2="261.91117" y2="114.20799" id="svg_13" stroke-linejoin="null" stroke-linecap="null"/>
   <line fill="none" stroke="#000" stroke-width="10" stroke-opacity="null" fill-opacity="null" x1="62.40553" y1="54.20799" x2="261.91117" y2="54.20799" id="svg_15" stroke-linejoin="null" stroke-linecap="null"/>
   <line stroke="#000" fill="none" stroke-width="10" stroke-opacity="null" fill-opacity="null" x1="62.40553" y1="253.20799" x2="126.91117" y2="253.20799" id="svg_4" stroke-linejoin="null" stroke-linecap="null"/>
   <line fill="none" stroke="#000" stroke-width="10" stroke-opacity="null" fill-opacity="null" x1="62.40553" y1="233.20799" x2="261.91117" y2="233.20799" id="svg_32" stroke-linejoin="null" stroke-linecap="null"/>
   <line fill="none" stroke="#000" stroke-width="10" stroke-opacity="null" fill-opacity="null" x1="62.40553" y1="213.20799" x2="261.91117" y2="213.20799" id="svg_24" stroke-linejoin="null" stroke-linecap="null"/>
   <line fill="none" stroke="#000" stroke-width="10" stroke-opacity="null" fill-opacity="null" x1="62.40553" y1="193.20799" x2="261.91117" y2="193.20799" id="svg_23" stroke-linejoin="null" stroke-linecap="null"/>
   <line fill="none" stroke-width="10" stroke-opacity="null" fill-opacity="null" x1="62.40553" y1="173.20799" x2="262" y2="173.20799" id="svg_22" stroke-linejoin="null" stroke-linecap="null" stroke="#000"/>
   <line fill="none" stroke="#000" stroke-width="10" stroke-opacity="null" fill-opacity="null" x1="62.40553" y1="153.20799" x2="261.91117" y2="153.20799" id="svg_16" stroke-linejoin="null" stroke-linecap="null"/>
   <line fill="none" stroke="#000" stroke-width="10" stroke-opacity="null" fill-opacity="null" x1="62.40553" y1="134.20799" x2="261.91117" y2="134.20799" id="svg_14" stroke-linejoin="null" stroke-linecap="null"/>
  </g>
  <path fill="#B9FFCE" stroke-width="0" stroke-opacity="null" d="m192.09009,250.81632l36.35124,22.82992l59.24649,-94.31563l-36.36854,-22.83589l-59.2292,94.3216l0.00002,0.00001l-0.00001,-0.00001z" id="svg_28" transform="rotate(13.062533378601074 239.8883361816411,215.07063293457023) " stroke="null"/>
  <path fill="#FFE7A2" stroke-width="5" stroke-opacity="null" d="m256.80584,56.35084c-25.25768,-23.78469 -52.49949,-42.83772 -74.84616,-45.43522c-1.21654,-0.16849 -2.47653,-0.26677 -3.80893,-0.29485l-147.07097,0c-2.34618,0 -4.6634,0.88455 -6.31442,2.5273c-1.63654,1.60062 -2.60687,3.84711 -2.60687,6.13572l0,361.54415c0,2.27457 0.9124,4.45085 2.60687,6.10764c1.69447,1.6287 3.92479,2.51326 6.31442,2.51326l265.95878,0c2.34618,0 4.59099,-0.87051 6.28546,-2.51326c1.69447,-1.64274 2.63584,-3.81903 2.63584,-6.10764l0,-240.58481c-0.52137,-27.92665 -23.08529,-58.3806 -49.154,-83.89228l-0.00002,-0.00001zm31.28245,315.786l-248.11619,0l0,-344.24619l138.19313,0l0,0.02808c6.02477,-0.35101 11.22403,5.41965 15.20675,18.61777c3.62065,12.56629 4.53306,28.95161 4.51858,40.31042c0.02897,8.32605 -0.39103,13.91418 -0.39103,13.91418l-0.70965,9.15444l9.5006,0.09828c0.04345,0 21.95565,0.25273 43.44785,4.9844c20.65221,4.32449 36.80033,12.94539 38.30652,22.70357c0.05793,0.87051 0.07241,1.74103 0.05793,2.55538l0,231.87967l-0.01448,0l-0.00001,0z" id="svg_10" stroke="#000" transform="rotate(180 164.05918884277344,200.03482055664062) "/>
  <path fill="white" stroke-width="5" stroke-opacity="null" fill-opacity="null" d="m173.05768,290.67606l-1.22948,32.83816l29.05241,-15.36676l26.99795,-14.25484l-53.70366,-33.74921l-1.11721,30.53266l0,0l-0.00001,-0.00001z" id="svg_17" stroke="#000" transform="rotate(13.062533378601074 199.8533630371095,291.82882690429693) "/>
  <path fill="red" stroke-width="5" stroke-opacity="null" fill-opacity="null" d="m354.62188,96.59506c-7.34128,-4.60967 -17.01469,-2.39104 -21.64045,4.95177l-11.46879,18.2542l55.66389,34.96124l11.47784,-18.24572c4.60821,-7.35155 2.40888,-17.03376 -4.93543,-21.63316l0,0l-29.09706,-18.28833z" id="svg_1" stroke="#000" transform="rotate(13.062533378601074 356.2876892089843,124.47666931152328) "/>
  <path fill="gray" stroke-width="5" stroke-opacity="null" fill-opacity="null" d="m202.81196,261.2619l55.66692,34.96088l90.72785,-144.43141l-55.69342,-34.97001l-90.70136,144.44053l0.00001,0.00001z" id="svg_3" stroke="#000" transform="rotate(13.062533378601074 276.0093383789065,206.52207946777332) "/>
  <line transform="rotate(-0.6161476373672485 265.65551757812784,197.45799255371224) " stroke-linecap="null" stroke-linejoin="null" id="svg_5" y2="149.45799" x2="315.15553" y1="245.45799" x1="216.15553" stroke-opacity="null" stroke-width="5" stroke="#444444" fill="none"/>
  <line transform="rotate(-0.6161476373672485 285.65551757812017,217.45799255371065) " stroke-linecap="null" stroke-linejoin="null" id="svg_9" y2="169.45799" x2="335.15553" y1="265.45799" x1="236.15553" stroke-opacity="null" stroke-width="5" stroke="#444444" fill="none"/>
  <path fill="black" stroke-width="5" stroke-opacity="null" fill-opacity="null" d="m167.61154,308.92365l-0.35598,9.50793l8.41181,-4.44928l7.81697,-4.12734l-15.54932,-9.77172l-0.32348,8.8404l0,0l0,0l0,0.00001z" id="svg_6" transform="rotate(13.062533378601074 175.36994934081991,309.2573852539062) " stroke="#000"/>
 </g>
</svg>
